<svg xmlns="http://www.w3.org/2000/svg" viewBox="0 0 519.6 160" width="519.6" height="160">
<g fill="#0F5F63">
<path transform="translate(0.00,118.00) scale(0.096000,-0.096000)" d="M152 0Q113 0 92.0 21.0Q71 42 71 81V624Q71 663 92.0 684.0Q113 705 152 705H501Q531 705 546.5 689.5Q562 674 562 645Q562 615 546.5 599.5Q531 584 501 584H219V419H478Q509 419 524.5 403.5Q540 388 540 358Q540 328 524.5 312.5Q509 297 478 297H219V121H501Q531 121 546.5 105.5Q562 90 562 61Q562 31 546.5 15.5Q531 0 501 0Z"/>
<path transform="translate(58.08,118.00) scale(0.096000,-0.096000)" d="M134 -9Q97 -9 77.5 11.0Q58 31 58 68V423Q58 460 77.5 479.5Q97 499 132 499Q168 499 187.0 479.5Q206 460 206 423V366L195 399Q218 448 263.5 474.5Q309 501 367 501Q426 501 464.0 478.5Q502 456 521.0 410.5Q540 365 540 295V68Q540 31 520.5 11.0Q501 -9 464 -9Q428 -9 408.5 11.0Q389 31 389 68V288Q389 339 370.5 361.5Q352 384 314 384Q266 384 237.5 354.0Q209 324 209 274V68Q209 -9 134 -9Z"/>
<path transform="translate(115.20,118.00) scale(0.096000,-0.096000)" d="M266 -9Q237 -9 215.0 6.5Q193 22 180 53L29 401Q18 427 21.0 449.5Q24 472 42.5 485.5Q61 499 94 499Q121 499 138.0 486.5Q155 474 168 439L286 139H254L377 440Q391 474 408.0 486.5Q425 499 455 499Q481 499 496.5 485.5Q512 472 515.5 450.0Q519 428 507 402L353 53Q340 21 318.5 6.0Q297 -9 266 -9Z"/>
<path transform="translate(166.46,118.00) scale(0.096000,-0.096000)" d="M134 -8Q97 -8 77.5 13.5Q58 35 58 74V416Q58 456 77.5 477.5Q97 499 134 499Q170 499 189.5 477.5Q209 456 209 416V74Q209 35 190.0 13.5Q171 -8 134 -8Z"/>
<path transform="translate(192.19,118.00) scale(0.096000,-0.096000)" d="M136 -9Q98 -9 78.0 11.0Q58 31 58 68V423Q58 460 77.5 479.5Q97 499 132 499Q168 499 187.0 479.5Q206 460 206 423V371H196Q208 431 249.0 464.0Q290 497 355 501Q380 503 393.5 488.5Q407 474 408 441Q410 410 395.5 392.0Q381 374 347 370L324 368Q267 363 239.5 335.0Q212 307 212 254V68Q212 31 192.5 11.0Q173 -9 136 -9Z"/>
<path transform="translate(231.74,118.00) scale(0.096000,-0.096000)" d="M294 -11Q215 -11 156.5 20.0Q98 51 66.0 109.0Q34 167 34 246Q34 305 52.0 352.0Q70 399 104.5 432.5Q139 466 187.0 483.5Q235 501 294 501Q373 501 431.5 470.0Q490 439 522.5 382.0Q555 325 555 246Q555 186 536.5 139.0Q518 92 484.0 58.0Q450 24 401.5 6.5Q353 -11 294 -11ZM294 102Q327 102 351.0 118.0Q375 134 389.0 165.5Q403 197 403 246Q403 319 373.0 353.5Q343 388 294 388Q262 388 237.5 373.0Q213 358 199.5 326.5Q186 295 186 246Q186 173 216.0 137.5Q246 102 294 102Z"/>
</g>
<g fill="#0B1F45">
<path transform="translate(288.29,118.00) scale(0.096000,-0.096000)" d="M299 -11Q230 -11 183.5 12.0Q137 35 114.5 79.0Q92 123 92 190V378H50Q22 378 6.5 393.0Q-9 408 -9 434Q-9 462 6.5 476.5Q22 491 50 491H92V567Q92 605 112.0 624.5Q132 644 168 644Q205 644 224.0 624.5Q243 605 243 567V491H338Q366 491 381.0 476.5Q396 462 396 434Q396 408 381.0 393.0Q366 378 338 378H243V196Q243 154 262.5 133.0Q282 112 325 112Q340 112 353.0 115.0Q366 118 377 119Q391 120 400.0 110.5Q409 101 409 69Q409 45 401.0 27.0Q393 9 373 1Q360 -4 337.5 -7.5Q315 -11 299 -11Z"/>
<path transform="translate(327.07,118.00) scale(0.096000,-0.096000)" d="M136 -9Q98 -9 78.0 11.0Q58 31 58 68V423Q58 460 77.5 479.5Q97 499 132 499Q168 499 187.0 479.5Q206 460 206 423V371H196Q208 431 249.0 464.0Q290 497 355 501Q380 503 393.5 488.5Q407 474 408 441Q410 410 395.5 392.0Q381 374 347 370L324 368Q267 363 239.5 335.0Q212 307 212 254V68Q212 31 192.5 11.0Q173 -9 136 -9Z"/>
<path transform="translate(366.62,118.00) scale(0.096000,-0.096000)" d="M224 -11Q170 -11 127.0 10.0Q84 31 60.0 67.0Q36 103 36 148Q36 202 64.0 233.5Q92 265 155.0 278.5Q218 292 322 292H375V214H323Q272 214 240.5 208.5Q209 203 195.5 190.0Q182 177 182 154Q182 126 201.5 108.0Q221 90 258 90Q287 90 309.5 103.5Q332 117 345.0 140.5Q358 164 358 194V309Q358 353 338.0 371.5Q318 390 270 390Q243 390 211.5 383.5Q180 377 142 362Q120 352 103.0 357.5Q86 363 77.0 377.5Q68 392 68.0 409.5Q68 427 78.0 443.5Q88 460 111 468Q158 487 199.5 494.0Q241 501 276 501Q353 501 402.5 478.5Q452 456 477.0 409.5Q502 363 502 290V68Q502 31 484.0 11.0Q466 -9 432 -9Q398 -9 379.5 11.0Q361 31 361 68V105L368 99Q362 65 342.5 40.5Q323 16 293.0 2.5Q263 -11 224 -11Z"/>
<path transform="translate(420.10,118.00) scale(0.096000,-0.096000)" d="M297 -11Q217 -11 157.5 20.5Q98 52 66.0 110.0Q34 168 34 247Q34 306 52.0 353.0Q70 400 104.5 433.0Q139 466 188.0 483.5Q237 501 297 501Q328 501 363.0 493.5Q398 486 432 468Q452 459 459.5 442.5Q467 426 465.0 408.5Q463 391 452.5 377.5Q442 364 426.0 359.5Q410 355 390 365Q371 376 350.5 381.0Q330 386 312 386Q282 386 259.0 376.5Q236 367 220.5 349.5Q205 332 196.5 306.0Q188 280 188 246Q188 180 220.5 142.5Q253 105 312 105Q330 105 350.0 109.5Q370 114 390 125Q410 135 426.0 130.0Q442 125 451.5 111.5Q461 98 462.5 80.5Q464 63 456.5 46.5Q449 30 430 21Q396 4 362.0 -3.5Q328 -11 297 -11Z"/>
<path transform="translate(465.98,118.00) scale(0.096000,-0.096000)" d="M134 -9Q97 -9 77.5 11.0Q58 31 58 68V637Q58 675 77.5 694.5Q97 714 134 714Q170 714 189.5 694.5Q209 675 209 637V288H211L356 449Q378 474 396.5 486.5Q415 499 446 499Q477 499 493.5 483.0Q510 467 510.5 444.5Q511 422 491 399L338 228V285L508 89Q527 66 524.5 43.0Q522 20 504.0 5.5Q486 -9 458 -9Q424 -9 403.5 4.0Q383 17 362 44L211 212H209V68Q209 -9 134 -9Z"/>
</g>
<circle cx="179.28" cy="48.85" r="7.25" fill="#8DC63F"/>
</svg>